<?xml version="1.0" encoding="UTF-8"?>
<svg id="Layer_1" data-name="Layer 1" xmlns="http://www.w3.org/2000/svg" viewBox="0 0 911.91 177.26">
  <defs>
    <style>
      .cls-1 {
        fill: #81b3e0;
      }

      .cls-1, .cls-2 {
        stroke-width: 0px;
      }

      .cls-2 {
        fill: #707d88;
      }
    </style>
  </defs>
  <g>
    <path class="cls-2" d="m45.53,36.42c20.15,0,26.15,7.94,26.15,7.94h.39s-.19-1.94-.19-4.46V0h33.51v138.51h-31.38v-6.59c0-3.1.19-5.62.19-5.62h-.39s-8.33,14.53-28.87,14.53C17.82,140.84,0,119.53,0,88.53s18.99-52.11,45.53-52.11Zm7.75,76.72c10.07,0,19.57-7.36,19.57-24.6,0-12.01-6.39-23.83-19.57-23.83-10.46,0-19.57,8.52-19.57,23.83s7.94,24.6,19.57,24.6Z"/>
    <path class="cls-2" d="m179.19,36.42c31.58,0,56.76,21.12,56.76,52.5s-25.18,51.92-56.57,51.92-56.57-20.73-56.57-51.92,25.18-52.5,56.37-52.5Zm.19,76.52c12.21,0,22.67-9.11,22.67-24.02s-10.46-24.6-22.67-24.6-22.67,9.49-22.67,24.6,10.46,24.02,22.67,24.02Z"/>
    <path class="cls-2" d="m252.03,0h33.51v97.25c0,9.49,1.74,12.79,9.3,12.79,2.13,0,4.07-.19,4.07-.19v29.06s-4.65.58-10.07.58c-17.82,0-36.81-4.26-36.81-37.78V0Z"/>
    <path class="cls-2" d="m315.96,38.75h30.22v5.04c0,3.29-.39,6.39-.39,6.39h.39s9.11-13.75,30.22-13.75c27.12,0,44.94,21.31,44.94,52.31s-19.95,52.11-46.49,52.11c-16.27,0-25.38-9.49-25.38-9.49h-.39s.39,3.49.39,8.52v37.39h-33.51V38.75Zm52.11,74.39c10.46,0,19.57-8.52,19.57-23.83s-7.94-24.6-19.57-24.6c-10.07,0-19.57,7.36-19.57,24.6,0,12.01,6.39,23.83,19.57,23.83Z"/>
    <path class="cls-2" d="m439.36,0h33.51v43.78c0,5.04-.39,8.52-.39,8.52h.39c5.62-9.88,17.24-15.89,30.42-15.89,20.15,0,35.84,9.3,35.84,37.39v64.7h-33.51v-58.5c0-9.3-3.68-13.17-11.04-13.17-10.27,0-17.05,6.01-19.95,14.72-1.36,3.87-1.74,8.14-1.74,12.79v44.17h-33.51V0Z"/>
    <path class="cls-2" d="m562.57,38.75h33.51v99.77h-33.51V38.75Zm.39-38.75h32.74v26.15h-32.74V0Z"/>
    <path class="cls-2" d="m620.88,38.75h32.16v8.72c0,3.29-.39,6.2-.39,6.2h.39c4.65-7.75,14.14-17.24,31.77-17.24,20.15,0,35.84,9.3,35.84,37.39v64.7h-33.51v-58.5c0-9.3-3.68-13.17-11.04-13.17-10.46,0-16.85,5.81-19.76,14.34-1.36,3.88-1.94,8.33-1.94,13.17v44.17h-33.51V38.75Z"/>
  </g>
  <path class="cls-1" d="m911.79,49.14c-2.39-12.39-20.99-10.93-27.54-19.33-14.24-18.36-30.54-24.46-53.07-19.73-3.97,1.07-7.7,2.87-10.99,5.31-3.39,2.61-7.73,4.44-11.58,1.77-3.26-1.93-6.95-3.06-10.75-3.27-1.84-.36-28.65-1.9-24.59,13.21,2.39,4.37,13.78,7.87,16.73,11.75.88,1.66-1.29,4.49-4.85,8.98-16.72,18.24-19.55,44.1-11.85,71.18-7.51,5.33-11.78,14.03-11.34,23.14,1.94,10.26,10.24,6.66,15.82-.16,6.09-6.68,16.95-4.44,24.4-.5,5.97,2.93,10.09-4.61,8.07-9.67-2.2-6.81-11.45-12.94-17.19-15.4,4.33-11.06,11.21-20.99,20.08-29-.06-2.3-.41-4.59-1.06-6.8-.29-1.09.16-2.23,1.12-2.84,5.5-2.7,5.19,8.12,5.3,11.23-.05,3.01-.16,8.66,3.83,11.57,15.75,7.85,25.94-15.27,29.09-29.95-.19-3.53,3.56-2.95,6.14-3.72,9.28-1.9,18.15-2.88,26.14-3.72,15.41-1.97,29.69-2.01,28.08-14.03Zm-45.99-7.98c-.32.8-.95,1.44-1.74,1.8-.85.27-1.79.19-2.57-.24-1.02-.73-1.64-1.9-1.66-3.14-.27-1.22.05-2.5.86-3.46,3.79-2.99,6.62,1.61,5.12,5.04h0Z"/>
</svg>