<?xml version="1.0" encoding="UTF-8"?>
<svg id="Layer_1" data-name="Layer 1" xmlns="http://www.w3.org/2000/svg" viewBox="0 0 959.63 205.35">
  <defs>
    <style>
      .cls-1 {
        fill: #262626;
        font-family: MuseoSans-900, 'Museo Sans';
        font-size: 193.73px;
      }

      .cls-2 {
        fill: #81b3e0;
        stroke-width: 0px;
      }
    </style>
  </defs>
  <text class="cls-1" transform="translate(0 164.66)"><tspan x="0" y="0">dolphin</tspan></text>
  <path class="cls-2" d="m959.47,70.98c-3.03-15.95-26.61-14.07-34.91-24.88-18.05-23.63-38.72-31.48-67.28-25.39-5.04,1.37-9.77,3.69-13.94,6.83-4.3,3.36-9.8,5.72-14.69,2.28-4.14-2.49-8.81-3.93-13.63-4.21-2.34-.46-36.32-2.45-31.17,17,3.03,5.63,17.46,10.13,21.21,15.13,1.12,2.14-1.63,5.78-6.15,11.56-21.2,23.47-24.78,56.76-15.02,91.62-9.52,6.86-14.93,18.06-14.38,29.78,2.46,13.21,12.98,8.57,20.06-.2,7.72-8.6,21.48-5.71,30.94-.65,7.56,3.77,12.79-5.94,10.23-12.44-2.79-8.77-14.52-16.66-21.79-19.82,5.49-14.24,14.21-27.02,25.46-37.33-.07-2.96-.52-5.9-1.34-8.75-.37-1.4.21-2.87,1.42-3.66,6.97-3.47,6.58,10.45,6.72,14.45-.07,3.88-.2,11.15,4.86,14.89,19.96,10.11,32.88-19.65,36.88-38.55-.24-4.54,4.52-3.8,7.79-4.79,11.76-2.45,23.01-3.71,33.14-4.79,19.53-2.54,37.64-2.59,35.59-18.05Zm-58.3-10.27c-.41,1.03-1.2,1.86-2.21,2.31-1.08.35-2.26.24-3.26-.31-1.3-.94-2.08-2.44-2.11-4.05-.34-1.57.06-3.22,1.09-4.45,4.81-3.85,8.4,2.07,6.49,6.49h0Z"/>
</svg>